<mxfile host="app.diagrams.net" agent="Mozilla/5.0 (Macintosh; Intel Mac OS X 10_15_7) AppleWebKit/537.36 (KHTML, like Gecko) Chrome/129.0.0.0 Safari/537.36" version="24.7.17">
  <diagram name="Page-1" id="rwyt8O6BHOvwZtNAPDtA">
    <mxGraphModel dx="1174" dy="2214" grid="0" gridSize="10" guides="1" tooltips="1" connect="1" arrows="1" fold="1" page="0" pageScale="1" pageWidth="850" pageHeight="1100" math="0" shadow="0">
      <root>
        <mxCell id="0" />
        <mxCell id="1" parent="0" />
        <object label="&lt;div style=&quot;color: rgb(255 , 255 , 255) ; white-space: normal&quot;&gt;&lt;span style=&quot;font-size: 14px&quot;&gt;&lt;b&gt;%name%&lt;/b&gt;&lt;/span&gt;&lt;/div&gt;&lt;div style=&quot;color: rgb(255 , 255 , 255) ; white-space: normal ; font-size: 8px&quot;&gt;&lt;font style=&quot;line-height: 9.6px&quot;&gt;&lt;br&gt;&lt;/font&gt;&lt;/div&gt;&lt;div style=&quot;color: rgb(255 , 255 , 255) ; white-space: normal&quot;&gt;%description%&lt;/div&gt;" name="Uživatelé" description="[Database]" placeholders="1" id="6n6V5YqHm-eZs2ubv0Nd-1">
          <mxCell style="shape=cylinder;whiteSpace=wrap;html=1;boundedLbl=1;backgroundOutline=1;strokeColor=#2F6FA6;strokeWidth=1;fillColor=#3B8CD2;fontSize=9;fontColor=#000000;align=center;resizable=0;rotatable=0;metaEdit=1;allowArrows=0;" vertex="1" parent="1">
            <mxGeometry x="1943" y="1310" width="180" height="120" as="geometry" />
          </mxCell>
        </object>
        <mxCell id="6n6V5YqHm-eZs2ubv0Nd-2" style="rounded=0;orthogonalLoop=1;jettySize=auto;html=1;exitX=0.5;exitY=0;exitDx=0;exitDy=0;entryX=0.5;entryY=1;entryDx=0;entryDy=0;" edge="1" parent="1" source="6n6V5YqHm-eZs2ubv0Nd-1" target="6n6V5YqHm-eZs2ubv0Nd-4">
          <mxGeometry relative="1" as="geometry">
            <mxPoint x="2210" y="1240" as="targetPoint" />
          </mxGeometry>
        </mxCell>
        <mxCell id="6n6V5YqHm-eZs2ubv0Nd-3" value="Čtení dat" style="edgeLabel;html=1;align=center;verticalAlign=middle;resizable=0;points=[];" vertex="1" connectable="0" parent="6n6V5YqHm-eZs2ubv0Nd-2">
          <mxGeometry x="-0.0857" relative="1" as="geometry">
            <mxPoint as="offset" />
          </mxGeometry>
        </mxCell>
        <object label="&lt;div&gt;&lt;span style=&quot;font-size: 14px&quot;&gt;&lt;b&gt;%name%&lt;/b&gt;&lt;/span&gt;&lt;/div&gt;&lt;div&gt;&lt;span style=&quot;font-size: 8px&quot;&gt;[%technology%]&lt;/span&gt;&lt;/div&gt;&lt;div&gt;&lt;span style=&quot;font-size: 8px&quot;&gt;&lt;br&gt;&lt;/span&gt;&lt;/div&gt;&lt;div&gt;&lt;font size=&quot;1&quot;&gt;%description%&lt;/font&gt;&lt;/div&gt;" placeholders="1" name="Načítání dat uživatelů" technology="Module" description="" id="6n6V5YqHm-eZs2ubv0Nd-4">
          <mxCell style="rounded=0;whiteSpace=wrap;html=1;fillColor=#85baf0;fontColor=#000000;strokeColor=#6992BD;resizable=0;rotatable=0;metaEdit=1;allowArrows=0;" vertex="1" parent="1">
            <mxGeometry x="1943" y="1080" width="180" height="120" as="geometry" />
          </mxCell>
        </object>
        <mxCell id="6n6V5YqHm-eZs2ubv0Nd-5" style="rounded=0;orthogonalLoop=1;jettySize=auto;html=1;exitX=0.5;exitY=0;exitDx=0;exitDy=0;entryX=0.5;entryY=1;entryDx=0;entryDy=0;" edge="1" parent="1" source="6n6V5YqHm-eZs2ubv0Nd-46" target="6n6V5YqHm-eZs2ubv0Nd-7">
          <mxGeometry relative="1" as="geometry">
            <mxPoint x="1320" y="1270" as="targetPoint" />
          </mxGeometry>
        </mxCell>
        <mxCell id="6n6V5YqHm-eZs2ubv0Nd-6" value="Čtení dat" style="edgeLabel;html=1;align=center;verticalAlign=middle;resizable=0;points=[];" vertex="1" connectable="0" parent="6n6V5YqHm-eZs2ubv0Nd-5">
          <mxGeometry x="0.0052" relative="1" as="geometry">
            <mxPoint as="offset" />
          </mxGeometry>
        </mxCell>
        <object label="&lt;div&gt;&lt;span style=&quot;font-size: 14px&quot;&gt;&lt;b&gt;%name%&lt;/b&gt;&lt;/span&gt;&lt;/div&gt;&lt;div&gt;&lt;span style=&quot;font-size: 8px&quot;&gt;[%technology%]&lt;/span&gt;&lt;/div&gt;&lt;div&gt;&lt;span style=&quot;font-size: 8px&quot;&gt;&lt;br&gt;&lt;/span&gt;&lt;/div&gt;&lt;div&gt;&lt;font size=&quot;1&quot;&gt;%description%&lt;/font&gt;&lt;/div&gt;" placeholders="1" name="Načítání dat předmětů" technology="Module" description="" id="6n6V5YqHm-eZs2ubv0Nd-7">
          <mxCell style="rounded=0;whiteSpace=wrap;html=1;fillColor=#85baf0;fontColor=#000000;strokeColor=#6992BD;resizable=0;rotatable=0;metaEdit=1;allowArrows=0;" vertex="1" parent="1">
            <mxGeometry x="1304" y="1080" width="180" height="120" as="geometry" />
          </mxCell>
        </object>
        <mxCell id="6n6V5YqHm-eZs2ubv0Nd-8" style="rounded=0;orthogonalLoop=1;jettySize=auto;html=1;entryX=0.5;entryY=1;entryDx=0;entryDy=0;" edge="1" parent="1" target="6n6V5YqHm-eZs2ubv0Nd-10">
          <mxGeometry relative="1" as="geometry">
            <mxPoint x="1370" y="1080" as="sourcePoint" />
            <mxPoint x="1170" y="1000" as="targetPoint" />
          </mxGeometry>
        </mxCell>
        <mxCell id="6n6V5YqHm-eZs2ubv0Nd-9" value="Načítání dat" style="edgeLabel;html=1;align=center;verticalAlign=middle;resizable=0;points=[];" vertex="1" connectable="0" parent="6n6V5YqHm-eZs2ubv0Nd-8">
          <mxGeometry x="0.0561" y="1" relative="1" as="geometry">
            <mxPoint as="offset" />
          </mxGeometry>
        </mxCell>
        <object label="&lt;div&gt;&lt;span style=&quot;font-size: 14px&quot;&gt;&lt;b&gt;%name%&lt;/b&gt;&lt;/span&gt;&lt;/div&gt;&lt;div&gt;&lt;span style=&quot;font-size: 8px&quot;&gt;[%technology%]&lt;/span&gt;&lt;/div&gt;&lt;div&gt;&lt;span style=&quot;font-size: 8px&quot;&gt;&lt;br&gt;&lt;/span&gt;&lt;/div&gt;&lt;div&gt;&lt;font size=&quot;1&quot;&gt;%description%&lt;/font&gt;&lt;/div&gt;" placeholders="1" name="Příprava předmětových dat k zobrazení" technology="Module" description="" id="6n6V5YqHm-eZs2ubv0Nd-10">
          <mxCell style="rounded=0;whiteSpace=wrap;html=1;fillColor=#85baf0;fontColor=#000000;strokeColor=#6992BD;resizable=0;rotatable=0;metaEdit=1;allowArrows=0;" vertex="1" parent="1">
            <mxGeometry x="1170" y="800" width="180" height="120" as="geometry" />
          </mxCell>
        </object>
        <mxCell id="6n6V5YqHm-eZs2ubv0Nd-11" style="rounded=0;orthogonalLoop=1;jettySize=auto;html=1;exitX=0.5;exitY=0;exitDx=0;exitDy=0;entryX=0.5;entryY=1;entryDx=0;entryDy=0;" edge="1" parent="1" source="6n6V5YqHm-eZs2ubv0Nd-4" target="6n6V5YqHm-eZs2ubv0Nd-13">
          <mxGeometry relative="1" as="geometry">
            <mxPoint x="2200" y="1000" as="targetPoint" />
          </mxGeometry>
        </mxCell>
        <mxCell id="6n6V5YqHm-eZs2ubv0Nd-12" value="Načítání dat" style="edgeLabel;html=1;align=center;verticalAlign=middle;resizable=0;points=[];" vertex="1" connectable="0" parent="6n6V5YqHm-eZs2ubv0Nd-11">
          <mxGeometry x="-0.0074" y="1" relative="1" as="geometry">
            <mxPoint as="offset" />
          </mxGeometry>
        </mxCell>
        <mxCell id="6n6V5YqHm-eZs2ubv0Nd-60" value="Získanie informácii o užívateľovi" style="edgeStyle=none;curved=1;rounded=0;orthogonalLoop=1;jettySize=auto;html=1;exitX=0;exitY=0.5;exitDx=0;exitDy=0;entryX=1;entryY=0.5;entryDx=0;entryDy=0;fontSize=12;startSize=8;endSize=8;" edge="1" parent="1" source="6n6V5YqHm-eZs2ubv0Nd-13" target="6n6V5YqHm-eZs2ubv0Nd-18">
          <mxGeometry x="0.0118" y="39" relative="1" as="geometry">
            <Array as="points">
              <mxPoint x="1762" y="860" />
            </Array>
            <mxPoint as="offset" />
          </mxGeometry>
        </mxCell>
        <mxCell id="6n6V5YqHm-eZs2ubv0Nd-61" style="edgeStyle=none;curved=1;rounded=0;orthogonalLoop=1;jettySize=auto;html=1;exitX=0;exitY=0.5;exitDx=0;exitDy=0;entryX=1;entryY=0.5;entryDx=0;entryDy=0;fontSize=12;startSize=8;endSize=8;" edge="1" parent="1" source="6n6V5YqHm-eZs2ubv0Nd-13" target="6n6V5YqHm-eZs2ubv0Nd-10">
          <mxGeometry relative="1" as="geometry">
            <Array as="points">
              <mxPoint x="1792" y="1095" />
            </Array>
          </mxGeometry>
        </mxCell>
        <object label="&lt;div&gt;&lt;span style=&quot;font-size: 14px&quot;&gt;&lt;b&gt;%name%&lt;/b&gt;&lt;/span&gt;&lt;/div&gt;&lt;div&gt;&lt;span style=&quot;font-size: 8px&quot;&gt;[%technology%]&lt;/span&gt;&lt;/div&gt;&lt;div&gt;&lt;span style=&quot;font-size: 8px&quot;&gt;&lt;br&gt;&lt;/span&gt;&lt;/div&gt;&lt;div&gt;&lt;font size=&quot;1&quot;&gt;%description%&lt;/font&gt;&lt;/div&gt;" placeholders="1" name="Příprava uživatelských dat k zobrazení" technology="Module" description="" id="6n6V5YqHm-eZs2ubv0Nd-13">
          <mxCell style="rounded=0;whiteSpace=wrap;html=1;fillColor=#85baf0;fontColor=#000000;strokeColor=#6992BD;resizable=0;rotatable=0;metaEdit=1;allowArrows=0;" vertex="1" parent="1">
            <mxGeometry x="1940" y="800" width="180" height="120" as="geometry" />
          </mxCell>
        </object>
        <mxCell id="6n6V5YqHm-eZs2ubv0Nd-14" style="rounded=0;orthogonalLoop=1;jettySize=auto;html=1;exitX=0.5;exitY=0;exitDx=0;exitDy=0;entryX=0.5;entryY=1;entryDx=0;entryDy=0;" edge="1" parent="1" source="6n6V5YqHm-eZs2ubv0Nd-7" target="6n6V5YqHm-eZs2ubv0Nd-18">
          <mxGeometry relative="1" as="geometry">
            <mxPoint x="1550" y="1020" as="targetPoint" />
          </mxGeometry>
        </mxCell>
        <mxCell id="6n6V5YqHm-eZs2ubv0Nd-15" value="Načítání dat" style="edgeLabel;html=1;align=center;verticalAlign=middle;resizable=0;points=[];" vertex="1" connectable="0" parent="6n6V5YqHm-eZs2ubv0Nd-14">
          <mxGeometry x="0.094" y="-1" relative="1" as="geometry">
            <mxPoint as="offset" />
          </mxGeometry>
        </mxCell>
        <mxCell id="6n6V5YqHm-eZs2ubv0Nd-16" style="rounded=0;orthogonalLoop=1;jettySize=auto;html=1;exitX=0.5;exitY=1;exitDx=0;exitDy=0;entryX=0.25;entryY=0;entryDx=0;entryDy=0;" edge="1" parent="1" source="6n6V5YqHm-eZs2ubv0Nd-18" target="6n6V5YqHm-eZs2ubv0Nd-21">
          <mxGeometry relative="1" as="geometry" />
        </mxCell>
        <mxCell id="6n6V5YqHm-eZs2ubv0Nd-17" value="Zápis studenta" style="edgeLabel;html=1;align=center;verticalAlign=middle;resizable=0;points=[];" vertex="1" connectable="0" parent="6n6V5YqHm-eZs2ubv0Nd-16">
          <mxGeometry x="-0.0024" relative="1" as="geometry">
            <mxPoint as="offset" />
          </mxGeometry>
        </mxCell>
        <object label="&lt;div&gt;&lt;span style=&quot;font-size: 14px&quot;&gt;&lt;b&gt;%name%&lt;/b&gt;&lt;/span&gt;&lt;/div&gt;&lt;div&gt;&lt;span style=&quot;font-size: 8px&quot;&gt;[%technology%]&lt;/span&gt;&lt;/div&gt;&lt;div&gt;&lt;span style=&quot;font-size: 8px&quot;&gt;&lt;br&gt;&lt;/span&gt;&lt;/div&gt;&lt;div&gt;&lt;font size=&quot;1&quot;&gt;%description%&lt;/font&gt;&lt;/div&gt;" placeholders="1" name="Zapsat studenta na lístek" technology="Module" description="" id="6n6V5YqHm-eZs2ubv0Nd-18">
          <mxCell style="rounded=0;whiteSpace=wrap;html=1;fillColor=#85baf0;fontColor=#000000;strokeColor=#6992BD;resizable=0;rotatable=0;metaEdit=1;allowArrows=0;" vertex="1" parent="1">
            <mxGeometry x="1505" y="800" width="180" height="120" as="geometry" />
          </mxCell>
        </object>
        <mxCell id="6n6V5YqHm-eZs2ubv0Nd-19" style="rounded=0;orthogonalLoop=1;jettySize=auto;html=1;exitX=0.5;exitY=1;exitDx=0;exitDy=0;entryX=0.85;entryY=0.05;entryDx=0;entryDy=0;entryPerimeter=0;" edge="1" parent="1" source="6n6V5YqHm-eZs2ubv0Nd-21" target="6n6V5YqHm-eZs2ubv0Nd-46">
          <mxGeometry relative="1" as="geometry" />
        </mxCell>
        <mxCell id="6n6V5YqHm-eZs2ubv0Nd-20" value="Zapsání změn" style="edgeLabel;html=1;align=center;verticalAlign=middle;resizable=0;points=[];" vertex="1" connectable="0" parent="6n6V5YqHm-eZs2ubv0Nd-19">
          <mxGeometry x="-0.0844" relative="1" as="geometry">
            <mxPoint y="1" as="offset" />
          </mxGeometry>
        </mxCell>
        <object label="&lt;div&gt;&lt;span style=&quot;font-size: 14px&quot;&gt;&lt;b&gt;%name%&lt;/b&gt;&lt;/span&gt;&lt;/div&gt;&lt;div&gt;&lt;span style=&quot;font-size: 8px&quot;&gt;[%technology%]&lt;/span&gt;&lt;/div&gt;&lt;div&gt;&lt;span style=&quot;font-size: 8px&quot;&gt;&lt;br&gt;&lt;/span&gt;&lt;/div&gt;&lt;div&gt;&lt;font size=&quot;1&quot;&gt;%description%&lt;/font&gt;&lt;/div&gt;" placeholders="1" name="Ukládání změn v lístku" technology="Module" description="" id="6n6V5YqHm-eZs2ubv0Nd-21">
          <mxCell style="rounded=0;whiteSpace=wrap;html=1;fillColor=#85baf0;fontColor=#000000;strokeColor=#6992BD;resizable=0;rotatable=0;metaEdit=1;allowArrows=0;" vertex="1" parent="1">
            <mxGeometry x="1590" y="1080" width="180" height="120" as="geometry" />
          </mxCell>
        </object>
        <mxCell id="6n6V5YqHm-eZs2ubv0Nd-22" style="rounded=0;orthogonalLoop=1;jettySize=auto;html=1;exitX=0.5;exitY=1;exitDx=0;exitDy=0;entryX=0.5;entryY=0;entryDx=0;entryDy=0;" edge="1" parent="1" source="6n6V5YqHm-eZs2ubv0Nd-23" target="6n6V5YqHm-eZs2ubv0Nd-58">
          <mxGeometry relative="1" as="geometry" />
        </mxCell>
        <object label="&lt;div&gt;&lt;span style=&quot;font-size: 14px&quot;&gt;&lt;b&gt;%name%&lt;/b&gt;&lt;/span&gt;&lt;/div&gt;&lt;div&gt;&lt;span style=&quot;font-size: 8px&quot;&gt;[%technology%]&lt;/span&gt;&lt;/div&gt;&lt;div&gt;&lt;span style=&quot;font-size: 8px&quot;&gt;&lt;br&gt;&lt;/span&gt;&lt;/div&gt;&lt;div&gt;&lt;font size=&quot;1&quot;&gt;%description%&lt;/font&gt;&lt;/div&gt;" placeholders="1" name="Tvorba emailu" technology="Module" description="" id="6n6V5YqHm-eZs2ubv0Nd-23">
          <mxCell style="rounded=0;whiteSpace=wrap;html=1;fillColor=#85baf0;fontColor=#000000;strokeColor=#6992BD;resizable=0;rotatable=0;metaEdit=1;allowArrows=0;" vertex="1" parent="1">
            <mxGeometry x="2304" y="805" width="180" height="120" as="geometry" />
          </mxCell>
        </object>
        <mxCell id="6n6V5YqHm-eZs2ubv0Nd-24" style="rounded=0;orthogonalLoop=1;jettySize=auto;html=1;exitX=0.5;exitY=0;exitDx=0;exitDy=0;entryX=0.5;entryY=1;entryDx=0;entryDy=0;" edge="1" parent="1" source="6n6V5YqHm-eZs2ubv0Nd-10" target="6n6V5YqHm-eZs2ubv0Nd-26">
          <mxGeometry relative="1" as="geometry">
            <mxPoint x="1160" y="700" as="targetPoint" />
          </mxGeometry>
        </mxCell>
        <mxCell id="6n6V5YqHm-eZs2ubv0Nd-25" value="Načítání dat" style="edgeLabel;html=1;align=center;verticalAlign=middle;resizable=0;points=[];" vertex="1" connectable="0" parent="6n6V5YqHm-eZs2ubv0Nd-24">
          <mxGeometry x="-0.0155" y="-1" relative="1" as="geometry">
            <mxPoint as="offset" />
          </mxGeometry>
        </mxCell>
        <object label="&lt;div&gt;&lt;span style=&quot;font-size: 14px&quot;&gt;&lt;b&gt;%name%&lt;/b&gt;&lt;/span&gt;&lt;/div&gt;&lt;div&gt;&lt;span style=&quot;font-size: 8px&quot;&gt;[%technology%]&lt;/span&gt;&lt;/div&gt;&lt;div&gt;&lt;span style=&quot;font-size: 8px&quot;&gt;&lt;br&gt;&lt;/span&gt;&lt;/div&gt;&lt;div&gt;&lt;font size=&quot;1&quot;&gt;%description%&lt;/font&gt;&lt;/div&gt;" placeholders="1" name="Vykreslování rozvrhu" technology="Module" description="" id="6n6V5YqHm-eZs2ubv0Nd-26">
          <mxCell style="rounded=0;whiteSpace=wrap;html=1;fillColor=#85baf0;fontColor=#000000;strokeColor=#6992BD;resizable=0;rotatable=0;metaEdit=1;allowArrows=0;" vertex="1" parent="1">
            <mxGeometry x="1170" y="490" width="180" height="120" as="geometry" />
          </mxCell>
        </object>
        <mxCell id="6n6V5YqHm-eZs2ubv0Nd-27" style="rounded=0;orthogonalLoop=1;jettySize=auto;html=1;exitX=0.5;exitY=1;exitDx=0;exitDy=0;entryX=0.5;entryY=0;entryDx=0;entryDy=0;" edge="1" parent="1" source="6n6V5YqHm-eZs2ubv0Nd-34" target="6n6V5YqHm-eZs2ubv0Nd-26">
          <mxGeometry relative="1" as="geometry" />
        </mxCell>
        <mxCell id="6n6V5YqHm-eZs2ubv0Nd-28" value="Navigace na" style="edgeLabel;html=1;align=center;verticalAlign=middle;resizable=0;points=[];" vertex="1" connectable="0" parent="6n6V5YqHm-eZs2ubv0Nd-27">
          <mxGeometry x="0.0925" y="-1" relative="1" as="geometry">
            <mxPoint as="offset" />
          </mxGeometry>
        </mxCell>
        <mxCell id="6n6V5YqHm-eZs2ubv0Nd-29" style="rounded=0;orthogonalLoop=1;jettySize=auto;html=1;exitX=0.5;exitY=1;exitDx=0;exitDy=0;entryX=0.5;entryY=0;entryDx=0;entryDy=0;" edge="1" parent="1" source="6n6V5YqHm-eZs2ubv0Nd-34" target="6n6V5YqHm-eZs2ubv0Nd-41">
          <mxGeometry relative="1" as="geometry" />
        </mxCell>
        <mxCell id="6n6V5YqHm-eZs2ubv0Nd-30" value="Text" style="edgeLabel;html=1;align=center;verticalAlign=middle;resizable=0;points=[];" vertex="1" connectable="0" parent="6n6V5YqHm-eZs2ubv0Nd-29">
          <mxGeometry x="0.0057" y="-2" relative="1" as="geometry">
            <mxPoint as="offset" />
          </mxGeometry>
        </mxCell>
        <mxCell id="6n6V5YqHm-eZs2ubv0Nd-31" value="Navigace na" style="edgeLabel;html=1;align=center;verticalAlign=middle;resizable=0;points=[];" vertex="1" connectable="0" parent="6n6V5YqHm-eZs2ubv0Nd-29">
          <mxGeometry x="0.0084" y="-2" relative="1" as="geometry">
            <mxPoint as="offset" />
          </mxGeometry>
        </mxCell>
        <mxCell id="6n6V5YqHm-eZs2ubv0Nd-32" style="edgeStyle=none;rounded=0;orthogonalLoop=1;jettySize=auto;html=1;exitX=0.75;exitY=1;exitDx=0;exitDy=0;entryX=0.5;entryY=0;entryDx=0;entryDy=0;" edge="1" parent="1" source="6n6V5YqHm-eZs2ubv0Nd-51" target="6n6V5YqHm-eZs2ubv0Nd-23">
          <mxGeometry relative="1" as="geometry" />
        </mxCell>
        <mxCell id="6n6V5YqHm-eZs2ubv0Nd-33" value="Komunikace se&lt;div&gt;studenty&lt;/div&gt;" style="edgeLabel;html=1;align=center;verticalAlign=middle;resizable=0;points=[];" vertex="1" connectable="0" parent="6n6V5YqHm-eZs2ubv0Nd-32">
          <mxGeometry x="-0.0402" relative="1" as="geometry">
            <mxPoint as="offset" />
          </mxGeometry>
        </mxCell>
        <object label="&lt;div&gt;&lt;span style=&quot;font-size: 14px&quot;&gt;&lt;b&gt;%name%&lt;/b&gt;&lt;/span&gt;&lt;/div&gt;&lt;div&gt;&lt;span style=&quot;font-size: 8px&quot;&gt;[%technology%]&lt;/span&gt;&lt;/div&gt;&lt;div&gt;&lt;span style=&quot;font-size: 8px&quot;&gt;&lt;br&gt;&lt;/span&gt;&lt;/div&gt;&lt;div&gt;&lt;font size=&quot;1&quot;&gt;%description%&lt;/font&gt;&lt;/div&gt;" placeholders="1" name="Navigace" technology="Module" description="" id="6n6V5YqHm-eZs2ubv0Nd-34">
          <mxCell style="rounded=0;whiteSpace=wrap;html=1;fillColor=#85baf0;fontColor=#000000;strokeColor=#6992BD;resizable=0;rotatable=0;metaEdit=1;allowArrows=0;" vertex="1" parent="1">
            <mxGeometry x="1400" y="320" width="180" height="120" as="geometry" />
          </mxCell>
        </object>
        <mxCell id="6n6V5YqHm-eZs2ubv0Nd-35" style="rounded=0;orthogonalLoop=1;jettySize=auto;html=1;exitX=0.75;exitY=0;exitDx=0;exitDy=0;entryX=0.25;entryY=1;entryDx=0;entryDy=0;" edge="1" parent="1" source="6n6V5YqHm-eZs2ubv0Nd-10" target="6n6V5YqHm-eZs2ubv0Nd-41">
          <mxGeometry relative="1" as="geometry">
            <mxPoint x="1450" y="660" as="targetPoint" />
          </mxGeometry>
        </mxCell>
        <mxCell id="6n6V5YqHm-eZs2ubv0Nd-36" value="Načítání dat" style="edgeLabel;html=1;align=center;verticalAlign=middle;resizable=0;points=[];" vertex="1" connectable="0" parent="6n6V5YqHm-eZs2ubv0Nd-35">
          <mxGeometry x="0.0204" y="-1" relative="1" as="geometry">
            <mxPoint as="offset" />
          </mxGeometry>
        </mxCell>
        <mxCell id="6n6V5YqHm-eZs2ubv0Nd-37" style="edgeStyle=none;rounded=0;orthogonalLoop=1;jettySize=auto;html=1;exitX=0.5;exitY=1;exitDx=0;exitDy=0;entryX=0.5;entryY=0;entryDx=0;entryDy=0;" edge="1" parent="1" source="6n6V5YqHm-eZs2ubv0Nd-41" target="6n6V5YqHm-eZs2ubv0Nd-18">
          <mxGeometry relative="1" as="geometry" />
        </mxCell>
        <mxCell id="6n6V5YqHm-eZs2ubv0Nd-38" value="Umožní zapsat&amp;nbsp;&lt;div&gt;studenta&lt;/div&gt;" style="edgeLabel;html=1;align=center;verticalAlign=middle;resizable=0;points=[];" vertex="1" connectable="0" parent="6n6V5YqHm-eZs2ubv0Nd-37">
          <mxGeometry x="0.1472" y="1" relative="1" as="geometry">
            <mxPoint x="-9" y="20" as="offset" />
          </mxGeometry>
        </mxCell>
        <mxCell id="6n6V5YqHm-eZs2ubv0Nd-39" style="rounded=0;orthogonalLoop=1;jettySize=auto;html=1;exitX=1;exitY=0.5;exitDx=0;exitDy=0;entryX=0;entryY=0.5;entryDx=0;entryDy=0;" edge="1" parent="1" source="6n6V5YqHm-eZs2ubv0Nd-41" target="6n6V5YqHm-eZs2ubv0Nd-51">
          <mxGeometry relative="1" as="geometry" />
        </mxCell>
        <mxCell id="6n6V5YqHm-eZs2ubv0Nd-40" value="Navigace na" style="edgeLabel;html=1;align=center;verticalAlign=middle;resizable=0;points=[];" vertex="1" connectable="0" parent="6n6V5YqHm-eZs2ubv0Nd-39">
          <mxGeometry x="-0.1199" y="-1" relative="1" as="geometry">
            <mxPoint as="offset" />
          </mxGeometry>
        </mxCell>
        <object label="&lt;div&gt;&lt;span style=&quot;font-size: 14px&quot;&gt;&lt;b&gt;%name%&lt;/b&gt;&lt;/span&gt;&lt;/div&gt;&lt;div&gt;&lt;span style=&quot;font-size: 8px&quot;&gt;[%technology%]&lt;/span&gt;&lt;/div&gt;&lt;div&gt;&lt;span style=&quot;font-size: 8px&quot;&gt;&lt;br&gt;&lt;/span&gt;&lt;/div&gt;&lt;div&gt;&lt;font size=&quot;1&quot;&gt;%description%&lt;/font&gt;&lt;/div&gt;" placeholders="1" name="Zobrazení lístků" technology="Module" description="" id="6n6V5YqHm-eZs2ubv0Nd-41">
          <mxCell style="rounded=0;whiteSpace=wrap;html=1;fillColor=#85baf0;fontColor=#000000;strokeColor=#6992BD;resizable=0;rotatable=0;metaEdit=1;allowArrows=0;" vertex="1" parent="1">
            <mxGeometry x="1654" y="490" width="180" height="120" as="geometry" />
          </mxCell>
        </object>
        <object label="" placeholders="1" instruction="edit data of the lower shape within the group" id="6n6V5YqHm-eZs2ubv0Nd-42">
          <mxCell style="group;resizable=0;rotatable=0;allowArrows=0;" vertex="1" connectable="0" parent="1">
            <mxGeometry x="1770" y="30" width="160" height="170" as="geometry" />
          </mxCell>
        </object>
        <object label="&lt;div style=&quot;color: rgb(255 , 255 , 255) ; white-space: normal&quot;&gt;&lt;span style=&quot;font-size: 14px&quot;&gt;&lt;b&gt;%name%&lt;/b&gt;&lt;/span&gt;&lt;/div&gt;&lt;div style=&quot;color: rgb(255 , 255 , 255) ; white-space: normal&quot;&gt;&lt;font style=&quot;font-size: 8px&quot;&gt;[Person]&lt;/font&gt;&lt;/div&gt;&lt;div style=&quot;color: rgb(255 , 255 , 255) ; white-space: normal ; font-size: 8px&quot;&gt;&lt;span style=&quot;font-size: x-small&quot;&gt;&lt;br&gt;&lt;/span&gt;&lt;/div&gt;&lt;div style=&quot;color: rgb(255 , 255 , 255) ; white-space: normal&quot;&gt;&lt;font size=&quot;1&quot;&gt;%description%&lt;/font&gt;&lt;/div&gt;" name="Uživatel" description="" placeholders="1" id="6n6V5YqHm-eZs2ubv0Nd-43">
          <mxCell style="rounded=1;whiteSpace=wrap;html=1;strokeColor=#00315C;fillColor=#004179;fontColor=#000000;arcSize=31;metaEdit=1;allowArrows=0;" vertex="1" parent="6n6V5YqHm-eZs2ubv0Nd-42">
            <mxGeometry y="70" width="160" height="100" as="geometry" />
          </mxCell>
        </object>
        <mxCell id="6n6V5YqHm-eZs2ubv0Nd-44" value="" style="ellipse;whiteSpace=wrap;html=1;aspect=fixed;strokeColor=#00315C;fillColor=#004179;fontColor=#000000;allowArrows=0;" vertex="1" parent="6n6V5YqHm-eZs2ubv0Nd-42">
          <mxGeometry x="40" width="80" height="80" as="geometry" />
        </mxCell>
        <mxCell id="6n6V5YqHm-eZs2ubv0Nd-45" style="rounded=0;orthogonalLoop=1;jettySize=auto;html=1;exitX=0;exitY=0.5;exitDx=0;exitDy=0;entryX=1;entryY=0.5;entryDx=0;entryDy=0;" edge="1" parent="1" source="6n6V5YqHm-eZs2ubv0Nd-43" target="6n6V5YqHm-eZs2ubv0Nd-34">
          <mxGeometry relative="1" as="geometry" />
        </mxCell>
        <object label="&lt;div style=&quot;color: rgb(255 , 255 , 255) ; white-space: normal&quot;&gt;&lt;span style=&quot;font-size: 14px&quot;&gt;&lt;b&gt;%name%&lt;/b&gt;&lt;/span&gt;&lt;/div&gt;&lt;div style=&quot;color: rgb(255 , 255 , 255) ; white-space: normal ; font-size: 8px&quot;&gt;&lt;font style=&quot;line-height: 9.6px&quot;&gt;&lt;br&gt;&lt;/font&gt;&lt;/div&gt;&lt;div style=&quot;color: rgb(255 , 255 , 255) ; white-space: normal&quot;&gt;%description%&lt;/div&gt;" name="Předměty a &#xa;lístky" description="[Database]" placeholders="1" id="6n6V5YqHm-eZs2ubv0Nd-46">
          <mxCell style="shape=cylinder;whiteSpace=wrap;html=1;boundedLbl=1;backgroundOutline=1;strokeColor=#2F6FA6;strokeWidth=1;fillColor=#3B8CD2;fontSize=9;fontColor=#000000;align=center;resizable=0;rotatable=0;metaEdit=1;allowArrows=0;" vertex="1" parent="1">
            <mxGeometry x="1304" y="1310" width="180" height="120" as="geometry" />
          </mxCell>
        </object>
        <mxCell id="6n6V5YqHm-eZs2ubv0Nd-47" style="rounded=0;orthogonalLoop=1;jettySize=auto;html=1;exitX=0.5;exitY=0;exitDx=0;exitDy=0;" edge="1" parent="1" source="6n6V5YqHm-eZs2ubv0Nd-13" target="6n6V5YqHm-eZs2ubv0Nd-51">
          <mxGeometry relative="1" as="geometry">
            <mxPoint x="2030" y="610" as="targetPoint" />
          </mxGeometry>
        </mxCell>
        <mxCell id="6n6V5YqHm-eZs2ubv0Nd-48" value="Načítání dat" style="edgeLabel;html=1;align=center;verticalAlign=middle;resizable=0;points=[];" vertex="1" connectable="0" parent="6n6V5YqHm-eZs2ubv0Nd-47">
          <mxGeometry x="-0.0452" y="1" relative="1" as="geometry">
            <mxPoint as="offset" />
          </mxGeometry>
        </mxCell>
        <mxCell id="6n6V5YqHm-eZs2ubv0Nd-66" value="Úpravy lístku učiteľom" style="edgeStyle=none;curved=1;rounded=0;orthogonalLoop=1;jettySize=auto;html=1;exitX=0;exitY=1;exitDx=0;exitDy=0;entryX=0.5;entryY=0;entryDx=0;entryDy=0;fontSize=12;startSize=8;endSize=8;" edge="1" parent="1" source="6n6V5YqHm-eZs2ubv0Nd-51" target="6n6V5YqHm-eZs2ubv0Nd-21">
          <mxGeometry x="-0.1963" y="9" relative="1" as="geometry">
            <mxPoint y="-1" as="offset" />
          </mxGeometry>
        </mxCell>
        <object label="&lt;div&gt;&lt;span style=&quot;font-size: 14px&quot;&gt;&lt;b&gt;%name%&lt;/b&gt;&lt;/span&gt;&lt;/div&gt;&lt;div&gt;&lt;span style=&quot;font-size: 8px&quot;&gt;[%technology%]&lt;/span&gt;&lt;/div&gt;&lt;div&gt;&lt;span style=&quot;font-size: 8px&quot;&gt;&lt;br&gt;&lt;/span&gt;&lt;/div&gt;&lt;div&gt;&lt;font size=&quot;1&quot;&gt;%description%&lt;/font&gt;&lt;/div&gt;" placeholders="1" name="Detail o lístku" technology="Module" description="" id="6n6V5YqHm-eZs2ubv0Nd-51">
          <mxCell style="rounded=0;whiteSpace=wrap;html=1;fillColor=#85baf0;fontColor=#000000;strokeColor=#6992BD;resizable=0;rotatable=0;metaEdit=1;allowArrows=0;" vertex="1" parent="1">
            <mxGeometry x="1940" y="490" width="180" height="120" as="geometry" />
          </mxCell>
        </object>
        <mxCell id="6n6V5YqHm-eZs2ubv0Nd-52" value="Mail server" style="ellipse;shape=cloud;whiteSpace=wrap;html=1;" vertex="1" parent="1">
          <mxGeometry x="2301" y="1297" width="180" height="150" as="geometry" />
        </mxCell>
        <mxCell id="6n6V5YqHm-eZs2ubv0Nd-53" value="Presentation Layer" style="text;html=1;align=center;verticalAlign=middle;resizable=0;points=[];autosize=1;strokeColor=none;fillColor=none;fontSize=30;" vertex="1" parent="1">
          <mxGeometry x="820" y="430" width="280" height="50" as="geometry" />
        </mxCell>
        <mxCell id="6n6V5YqHm-eZs2ubv0Nd-54" value="Bussiness Layer" style="text;html=1;align=center;verticalAlign=middle;resizable=0;points=[];autosize=1;strokeColor=none;fillColor=none;fontSize=30;" vertex="1" parent="1">
          <mxGeometry x="827" y="835" width="240" height="50" as="geometry" />
        </mxCell>
        <mxCell id="6n6V5YqHm-eZs2ubv0Nd-55" value="Persistance Layer" style="text;html=1;align=center;verticalAlign=middle;resizable=0;points=[];autosize=1;strokeColor=none;fillColor=none;fontSize=30;" vertex="1" parent="1">
          <mxGeometry x="820" y="1115" width="260" height="50" as="geometry" />
        </mxCell>
        <mxCell id="6n6V5YqHm-eZs2ubv0Nd-56" value="Data Layer&amp;nbsp;" style="text;html=1;align=center;verticalAlign=middle;resizable=0;points=[];autosize=1;strokeColor=none;fillColor=none;fontSize=30;" vertex="1" parent="1">
          <mxGeometry x="820" y="1330" width="180" height="50" as="geometry" />
        </mxCell>
        <mxCell id="6n6V5YqHm-eZs2ubv0Nd-57" style="rounded=0;orthogonalLoop=1;jettySize=auto;html=1;exitX=0.5;exitY=1;exitDx=0;exitDy=0;entryX=0.521;entryY=0.117;entryDx=0;entryDy=0;entryPerimeter=0;" edge="1" parent="1" source="6n6V5YqHm-eZs2ubv0Nd-58" target="6n6V5YqHm-eZs2ubv0Nd-52">
          <mxGeometry relative="1" as="geometry">
            <mxPoint x="2040" y="1270" as="targetPoint" />
          </mxGeometry>
        </mxCell>
        <object label="&lt;div&gt;&lt;span style=&quot;font-size: 14px&quot;&gt;&lt;b&gt;%name%&lt;/b&gt;&lt;/span&gt;&lt;/div&gt;&lt;div&gt;&lt;span style=&quot;font-size: 8px&quot;&gt;[%technology%]&lt;/span&gt;&lt;/div&gt;&lt;div&gt;&lt;span style=&quot;font-size: 8px&quot;&gt;&lt;br&gt;&lt;/span&gt;&lt;/div&gt;&lt;div&gt;&lt;font size=&quot;1&quot;&gt;%description%&lt;/font&gt;&lt;/div&gt;" placeholders="1" name="Odesílání emailu" technology="Module" description="" id="6n6V5YqHm-eZs2ubv0Nd-58">
          <mxCell style="rounded=0;whiteSpace=wrap;html=1;fillColor=#85baf0;fontColor=#000000;strokeColor=#6992BD;resizable=0;rotatable=0;metaEdit=1;allowArrows=0;" vertex="1" parent="1">
            <mxGeometry x="2304" y="1080" width="180" height="120" as="geometry" />
          </mxCell>
        </object>
        <mxCell id="6n6V5YqHm-eZs2ubv0Nd-59" style="edgeStyle=none;curved=1;rounded=0;orthogonalLoop=1;jettySize=auto;html=1;exitX=0.13;exitY=0.77;exitDx=0;exitDy=0;exitPerimeter=0;fontSize=12;startSize=8;endSize=8;" edge="1" parent="1" source="6n6V5YqHm-eZs2ubv0Nd-52" target="6n6V5YqHm-eZs2ubv0Nd-52">
          <mxGeometry relative="1" as="geometry" />
        </mxCell>
      </root>
    </mxGraphModel>
  </diagram>
</mxfile>
